PathFileType	4	(X/Y/Z) abd_0kg_3.trc																										
DataRate	CameraRate	NumFrames	NumMarkers	Units	OrigDataRate	OrigDataStartFrame	OrigNumFrames																					
100	100	58	9	mm	100	591	787																					
Frame#	Time	gu			centelbow			EpL			centpxt8			centijc7			ij			ts			aa			ai		
		X1	Y1	Z1	X2	Y2	Z2	X3	Y3	Z3	X4	Y4	Z4	X5	Y5	Z5	X6	Y6	Z6	X7	Y7	Z7	X8	Y8	Z8	X9	Y9	Z9  
590	5.9	-115.464	14.473	162.508	-135.617	-193.157	294.676	-151.6	-173.911	315.012	-46.816	-153.158	-8.669	-46.816	31.938	-8.669	0	0	0	-125.668	20.843	27.831	-151.888	38.864	142.777	-123.845	-90.252	51.072
591	5.91	-115.734	14.375	161.98	-135.985	-194.672	291.878	-151.723	-175.584	312.551	-46.816	-153.158	-8.669	-46.816	31.938	-8.669	0	0	0	-125.633	20.852	28.208	-151.918	38.527	143.192	-123.699	-90.305	51.142
592	5.92	-115.967	14.471	161.865	-136.671	-196.289	288.891	-152.147	-177.402	309.943	-46.816	-153.158	-8.669	-46.816	31.938	-8.669	0	0	0	-125.783	21.623	28.364	-152.069	38.907	143.408	-123.711	-89.603	50.951
593	5.93	-116.045	14.657	162.048	-137.59	-198.12	285.522	-152.787	-179.485	306.998	-46.816	-153.158	-8.669	-46.816	31.938	-8.669	0	0	0	-126.122	22.952	28.293	-152.254	39.752	143.444	-124.02	-88.368	50.411
594	5.94	-115.821	14.34	162.318	-138.617	-200.611	281.738	-153.508	-182.26	303.668	-46.816	-153.158	-8.669	-46.816	31.938	-8.669	0	0	0	-126.422	23.974	28.466	-152.247	40.139	143.777	-124.601	-87.486	49.89
595	5.95	-115.401	13.145	162.83	-139.805	-203.909	278.054	-154.376	-185.846	300.434	-46.816	-153.158	-8.669	-46.816	31.938	-8.669	0	0	0	-126.511	24.098	29.355	-151.913	39.469	144.868	-125.336	-87.545	49.85
596	5.96	-115.039	11.505	163.714	-141.126	-207.435	274.93	-155.398	-189.652	297.723	-46.816	-153.158	-8.669	-46.816	31.938	-8.669	0	0	0	-126.49	23.705	30.753	-151.328	38.164	146.506	-126.128	-88.136	50.171
597	5.97	-114.806	10.157	164.626	-142.309	-210.422	272.204	-156.309	-192.908	295.37	-46.816	-153.158	-8.669	-46.816	31.938	-8.669	0	0	0	-126.698	23.672	31.891	-150.741	37.138	147.932	-127.019	-88.36	50.183
598	5.98	-114.549	9.103	165.36	-143.251	-212.889	269.668	-156.967	-195.623	293.187	-46.816	-153.158	-8.669	-46.816	31.938	-8.669	0	0	0	-127.247	24.247	32.488	-150.247	36.667	148.856	-128.029	-87.96	49.652
599	5.99	-114.047	7.927	166.285	-144.028	-215.31	267.531	-157.405	-198.267	291.407	-46.816	-153.158	-8.669	-46.816	31.938	-8.669	0	0	0	-127.801	24.925	33.111	-149.595	36.282	149.82	-128.955	-87.444	49.157
600	6	-113.209	6.83	167.536	-144.535	-217.569	265.759	-157.494	-200.747	290.019	-46.816	-153.158	-8.669	-46.816	31.938	-8.669	0	0	0	-128.111	25.392	34.153	-148.604	35.71	151.193	-129.679	-87.122	49.108
601	6.01	-112.217	6.139	168.664	-144.746	-219.426	263.778	-157.191	-202.848	288.47	-46.816	-153.158	-8.669	-46.816	31.938	-8.669	0	0	0	-128.358	25.807	35.216	-147.462	35.137	152.573	-130.395	-86.833	49.136
602	6.02	-111.294	5.491	169.246	-144.871	-221.289	261.05	-156.698	-204.996	286.231	-46.816	-153.158	-8.669	-46.816	31.938	-8.669	0	0	0	-128.766	26.215	35.789	-146.423	34.639	153.442	-131.314	-86.527	48.762
603	6.03	-110.395	4.463	169.23	-144.894	-223.573	257.513	-156.023	-207.612	283.22	-46.816	-153.158	-8.669	-46.816	31.938	-8.669	0	0	0	-129.271	26.472	35.882	-145.516	34.105	153.792	-132.351	-86.349	48.034
604	6.04	-109.376	3.032	168.945	-144.654	-226.235	253.66	-155.066	-210.64	279.886	-46.816	-153.158	-8.669	-46.816	31.938	-8.669	0	0	0	-129.632	26.588	35.872	-144.618	33.568	153.989	-133.216	-86.289	47.351
605	6.05	-108.39	1.346	168.823	-144.32	-229.045	250.148	-154.069	-213.821	276.843	-46.816	-153.158	-8.669	-46.816	31.938	-8.669	0	0	0	-129.785	26.65	36.021	-143.708	33.092	154.299	-133.804	-86.265	46.954
606	6.06	-107.708	-0.147	168.88	-144.059	-231.522	247.167	-153.247	-216.65	274.256	-46.816	-153.158	-8.669	-46.816	31.938	-8.669	0	0	0	-129.954	26.651	36.282	-142.951	32.626	154.689	-134.323	-86.296	46.752
607	6.07	-107.32	-1.046	168.931	-143.731	-233.295	244.556	-152.463	-218.752	271.973	-46.816	-153.158	-8.669	-46.816	31.938	-8.669	0	0	0	-130.283	26.573	36.632	-142.43	32.11	155.15	-134.923	-86.401	46.678
608	6.08	-107.019	-1.63	169.014	-143.238	-234.694	242.181	-151.589	-220.469	269.882	-46.816	-153.158	-8.669	-46.816	31.938	-8.669	0	0	0	-130.674	26.542	37.159	-142.015	31.602	155.779	-135.509	-86.463	46.758
609	6.09	-106.657	-2.243	169.022	-142.589	-236.102	239.755	-150.587	-222.198	267.722	-46.816	-153.158	-8.669	-46.816	31.938	-8.669	0	0	0	-131.049	26.847	37.618	-141.575	31.353	156.335	-136.003	-86.195	46.705
610	6.1	-106.227	-2.715	168.689	-141.818	-237.35	236.981	-149.469	-223.772	265.204	-46.816	-153.158	-8.669	-46.816	31.938	-8.669	0	0	0	-131.42	27.524	37.622	-141.114	31.468	156.43	-136.474	-85.553	46.195
611	6.11	-105.806	-2.971	168.124	-141.09	-238.346	233.984	-148.413	-225.095	262.448	-46.816	-153.158	-8.669	-46.816	31.938	-8.669	0	0	0	-131.726	28.013	37.351	-140.704	31.518	156.229	-136.957	-85.087	45.52
612	6.12	-105.471	-3.233	167.586	-140.546	-239.322	230.959	-147.587	-226.399	259.645	-46.816	-153.158	-8.669	-46.816	31.938	-8.669	0	0	0	-131.908	27.885	37.243	-140.431	31.12	156.162	-137.401	-85.221	45.154
613	6.13	-105.268	-3.587	167.079	-140.16	-240.381	227.869	-146.977	-227.796	256.758	-46.816	-153.158	-8.669	-46.816	31.938	-8.669	0	0	0	-132.043	27.502	37.249	-140.362	30.57	156.186	-137.754	-85.604	44.993
614	6.14	-105.164	-4.077	166.73	-139.868	-241.549	224.925	-146.531	-229.3	253.994	-46.816	-153.158	-8.669	-46.816	31.938	-8.669	0	0	0	-132.189	27.332	37.187	-140.471	30.249	156.132	-137.984	-85.78	44.784
615	6.15	-105.116	-4.812	166.892	-139.688	-242.895	222.619	-146.272	-230.958	251.835	-46.816	-153.158	-8.669	-46.816	31.938	-8.669	0	0	0	-132.264	27.328	37.27	-140.625	30.084	156.212	-138.049	-85.795	44.711
616	6.16	-105.165	-5.614	167.529	-139.593	-244.243	220.963	-146.156	-232.595	250.3	-46.816	-153.158	-8.669	-46.816	31.938	-8.669	0	0	0	-132.155	27.305	37.609	-140.645	29.914	156.546	-137.907	-85.829	44.907
617	6.17	-105.343	-5.963	168.109	-139.407	-245.113	219.403	-145.967	-233.74	248.848	-46.816	-153.158	-8.669	-46.816	31.938	-8.669	0	0	0	-131.933	27.247	37.944	-140.501	29.755	156.877	-137.655	-85.895	45.145
618	6.18	-105.646	-5.494	168.349	-139.067	-245.159	217.621	-145.605	-234.057	247.175	-46.816	-153.158	-8.669	-46.816	31.938	-8.669	0	0	0	-131.806	27.17	38.117	-140.36	29.623	157.052	-137.517	-85.975	45.266
619	6.19	-106.004	-4.567	168.655	-138.775	-244.72	215.952	-145.257	-233.886	245.618	-46.816	-153.158	-8.669	-46.816	31.938	-8.669	0	0	0	-131.825	27.064	38.237	-140.306	29.487	157.178	-137.552	-86.082	45.36
620	6.2	-106.177	-4.02	169.496	-138.667	-244.596	214.795	-145.042	-234.028	244.58	-46.816	-153.158	-8.669	-46.816	31.938	-8.669	0	0	0	-131.876	26.993	38.416	-140.248	29.406	157.365	-137.616	-86.153	45.532
621	6.21	-105.95	-4.165	170.65	-138.604	-245.089	213.932	-144.783	-234.784	243.849	-46.816	-153.158	-8.669	-46.816	31.938	-8.669	0	0	0	-131.92	27.033	38.672	-140.146	29.456	157.631	-137.652	-86.112	45.805
622	6.22	-105.403	-4.467	171.447	-138.393	-245.694	212.748	-144.27	-235.654	242.816	-46.816	-153.158	-8.669	-46.816	31.938	-8.669	0	0	0	-131.961	27.117	38.978	-139.983	29.573	157.95	-137.693	-86.026	46.153
623	6.23	-104.808	-4.353	171.56	-138.015	-245.867	210.963	-143.5	-236.098	241.194	-46.816	-153.158	-8.669	-46.816	31.938	-8.669	0	0	0	-131.966	27.173	39.278	-139.7	29.689	158.268	-137.732	-85.964	46.52
624	6.24	-104.403	-3.897	171.229	-137.649	-245.694	208.823	-142.691	-236.197	239.217	-46.816	-153.158	-8.669	-46.816	31.938	-8.669	0	0	0	-132.01	27.273	39.503	-139.366	29.867	158.515	-137.835	-85.855	46.832
625	6.25	-104.272	-3.565	170.885	-137.474	-245.632	206.736	-142.066	-236.404	237.284	-46.816	-153.158	-8.669	-46.816	31.938	-8.669	0	0	0	-132.175	27.389	39.675	-139.126	30.046	158.71	-138.071	-85.73	47.077
626	6.26	-104.331	-3.535	170.642	-137.462	-245.856	204.803	-141.633	-236.891	235.489	-46.816	-153.158	-8.669	-46.816	31.938	-8.669	0	0	0	-132.286	27.299	39.958	-138.927	29.965	159.011	-138.282	-85.814	47.378
627	6.27	-104.437	-3.603	170.197	-137.47	-246.166	202.701	-141.27	-237.455	233.509	-46.816	-153.158	-8.669	-46.816	31.938	-8.669	0	0	0	-132.129	27.065	40.354	-138.591	29.685	159.417	-138.241	-86.045	47.732
628	6.28	-104.467	-3.64	169.444	-137.398	-246.434	200.289	-140.89	-237.971	231.202	-46.816	-153.158	-8.669	-46.816	31.938	-8.669	0	0	0	-131.803	27.142	40.553	-138.121	29.691	159.626	-137.99	-85.968	47.867
629	6.29	-104.328	-3.818	168.899	-137.227	-246.825	198.053	-140.492	-238.605	229.056	-46.816	-153.158	-8.669	-46.816	31.938	-8.669	0	0	0	-131.6	27.629	40.475	-137.734	30.096	159.559	-137.822	-85.483	47.718
630	6.3	-104.035	-4.257	169.038	-137.019	-247.45	196.496	-140.139	-239.463	227.575	-46.816	-153.158	-8.669	-46.816	31.938	-8.669	0	0	0	-131.63	28.03	40.483	-137.57	30.398	159.58	-137.929	-85.084	47.637
631	6.31	-103.701	-4.679	169.649	-136.825	-248.031	195.476	-139.844	-240.263	226.62	-46.816	-153.158	-8.669	-46.816	31.938	-8.669	0	0	0	-131.735	28.023	40.818	-137.503	30.277	159.924	-138.181	-85.09	47.866
632	6.32	-103.437	-4.739	170.264	-136.641	-248.234	194.594	-139.548	-240.67	225.799	-46.816	-153.158	-8.669	-46.816	31.938	-8.669	0	0	0	-131.76	27.884	41.264	-137.33	30.022	160.383	-138.342	-85.228	48.206
633	6.33	-103.266	-4.568	170.813	-136.51	-248.191	193.774	-139.257	-240.821	225.041	-46.816	-153.158	-8.669	-46.816	31.938	-8.669	0	0	0	-131.744	28.038	41.454	-137.023	30.057	160.588	-138.378	-85.076	48.295
634	6.34	-103.113	-4.588	171.464	-136.5	-248.312	193.106	-139.013	-241.139	224.438	-46.816	-153.158	-8.669	-46.816	31.938	-8.669	0	0	0	-131.778	28.549	41.251	-136.672	30.443	160.403	-138.412	-84.571	47.994
635	6.35	-102.928	-4.844	172.157	-136.55	-248.649	192.473	-138.737	-241.686	223.876	-46.816	-153.158	-8.669	-46.816	31.938	-8.669	0	0	0	-131.885	29.131	40.893	-136.371	30.903	160.064	-138.55	-83.993	47.541
636	6.36	-102.763	-4.944	172.488	-136.491	-248.839	191.514	-138.259	-242.095	222.991	-46.816	-153.158	-8.669	-46.816	31.938	-8.669	0	0	0	-132.08	29.499	40.752	-136.213	31.164	159.937	-138.859	-83.623	47.313
637	6.37	-102.589	-4.672	171.955	-136.147	-248.679	189.803	-137.427	-242.154	221.35	-46.816	-153.158	-8.669	-46.816	31.938	-8.669	0	0	0	-132.274	29.609	40.91	-136.122	31.192	160.105	-139.235	-83.506	47.402
638	6.38	-102.279	-4.263	170.5	-135.488	-248.394	187.275	-136.274	-242.076	218.881	-46.816	-153.158	-8.669	-46.816	31.938	-8.669	0	0	0	-132.219	29.619	41.113	-135.805	31.141	160.317	-139.377	-83.487	47.557
639	6.39	-101.92	-4.027	168.699	-134.799	-248.272	184.433	-135.172	-242.146	216.083	-46.816	-153.158	-8.669	-46.816	31.938	-8.669	0	0	0	-131.891	29.672	41.143	-135.22	31.156	160.355	-139.233	-83.423	47.56
640	6.4	-101.768	-4.013	167.237	-134.433	-248.353	181.91	-134.548	-242.399	213.595	-46.816	-153.158	-8.669	-46.816	31.938	-8.669	0	0	0	-131.684	29.775	41.044	-134.784	31.244	160.263	-139.2	-83.309	47.456
641	6.41	-101.861	-4.197	166.545	-134.421	-248.611	180.168	-134.446	-242.806	211.881	-46.816	-153.158	-8.669	-46.816	31.938	-8.669	0	0	0	-131.878	29.902	40.968	-134.803	31.358	160.191	-139.543	-83.173	47.376
642	6.42	-101.96	-4.637	166.757	-134.521	-249.102	179.447	-134.593	-243.412	211.181	-46.816	-153.158	-8.669	-46.816	31.938	-8.669	0	0	0	-132.239	30.065	40.92	-135.044	31.481	160.147	-140.003	-83.004	47.294
643	6.43	-101.888	-5.2	167.494	-134.526	-249.69	179.484	-134.702	-244.076	211.231	-46.816	-153.158	-8.669	-46.816	31.938	-8.669	0	0	0	-132.369	30.186	40.81	-135.092	31.528	160.039	-140.201	-82.883	47.118
644	6.44	-101.666	-5.514	168.103	-134.367	-250.016	179.659	-134.63	-244.447	211.413	-46.816	-153.158	-8.669	-46.816	31.938	-8.669	0	0	0	-132.182	30.167	40.66	-134.851	31.434	159.891	-140.102	-82.9	46.898
645	6.45	-101.412	-5.413	168.294	-134.1	-249.927	179.636	-134.396	-244.381	211.395	-46.816	-153.158	-8.669	-46.816	31.938	-8.669	0	0	0	-131.917	30.055	40.581	-134.551	31.274	159.814	-139.945	-83.007	46.773
646	6.46	-101.228	-5.154	168.253	-133.864	-249.679	179.521	-134.154	-244.144	211.281	-46.816	-153.158	-8.669	-46.816	31.938	-8.669	0	0	0	-131.788	29.903	40.6	-134.398	31.105	159.833	-139.915	-83.152	46.775
647	6.47	-101.108	-5.054	168.248	-133.716	-249.583	179.509	-133.983	-244.052	211.27	-46.816	-153.158	-8.669	-46.816	31.938	-8.669	0	0	0	-131.794	29.714	40.651	-134.377	30.932	159.885	-139.99	-83.335	46.842
